<svg width="250" height="250" viewBox="0 0 250 250" fill="none" xmlns="http://www.w3.org/2000/svg">
<rect width="250" height="250" fill="black"/>
<path d="M225 124.5C225 180.005 180.005 225 124.5 225C68.9954 225 24 180.005 24 124.5C24 68.9954 68.9954 24 124.5 24C180.005 24 225 68.9954 225 124.5Z" fill="#E4DAD3"/>
<path d="M59 117V92H63.6707L65.4222 99.0847H182.578L184.329 92H189V117H184.329L182.578 109.915L65.4222 109.915L63.6707 117H59Z" fill="#FBF0E9"/>
<path d="M59 157V132H63.6707L65.4222 139.085H182.578L184.329 132H189V157H184.329L182.578 149.915L65.4222 149.915L63.6707 157H59Z" fill="#FBF0E9"/>
<path d="M69.9311 96.541C72.3364 96.541 74.3454 97.3337 75.9581 98.919C77.5981 100.477 78.4181 102.964 78.4181 106.381C78.4181 109.77 77.4614 112.476 75.5481 114.499C73.6621 116.494 70.9424 117.492 67.3891 117.492C65.8038 117.492 64.4508 117.123 63.3301 116.385V126.061L66.1591 126.307V127.25H55.5811V126.307L58.0821 126.061V98.427L54.5151 98.222V97.279L63.2071 96.746L63.0841 100.19C64.5874 97.7573 66.8698 96.541 69.9311 96.541ZM63.3301 102.855V114.909C64.4234 115.811 65.6671 116.262 67.0611 116.262C68.4551 116.262 69.5211 115.961 70.2591 115.36C70.9971 114.731 71.5301 113.857 71.8581 112.736C72.4321 110.905 72.7191 108.527 72.7191 105.602C72.7191 100.409 71.3798 97.812 68.7011 97.812C67.2798 97.812 66.0224 98.386 64.9291 99.534C63.8631 100.682 63.3301 101.789 63.3301 102.855Z" fill="black"/>
<path d="M93.1771 107.406C90.0065 107.406 88.0111 108.24 87.1911 109.907C86.8358 110.618 86.6581 111.506 86.6581 112.572C86.6581 114.403 87.2868 115.469 88.5441 115.77C88.7355 115.825 88.9405 115.852 89.1591 115.852C90.0338 115.852 90.9085 115.401 91.7831 114.499C92.6578 113.57 93.1225 112.381 93.1771 110.932V107.406ZM86.6171 103.388C86.0158 103.798 85.3871 104.003 84.7311 104.003C84.0751 104.003 83.5148 103.784 83.0501 103.347C82.5855 102.91 82.3531 102.267 82.3531 101.42C82.3531 100.545 82.6128 99.7663 83.1321 99.083C83.6515 98.3997 84.3211 97.894 85.1411 97.566C86.7538 96.8827 88.2845 96.541 89.7331 96.541C92.9585 96.541 95.1588 97.115 96.3341 98.263C97.5095 99.3837 98.0971 101.119 98.0971 103.47V115.811L101.541 116.057V116.959L93.7101 117.451L93.3411 114.007C92.0565 116.33 89.8425 117.492 86.6991 117.492C85.2778 117.492 84.0478 117.068 83.0091 116.221C81.9978 115.346 81.4921 114.13 81.4921 112.572C81.5195 110.495 82.5581 108.937 84.6081 107.898C86.6581 106.832 89.5145 106.299 93.1771 106.299V102.773C93.1771 101.106 92.9448 99.821 92.4801 98.919C92.0155 98.017 91.1545 97.566 89.8971 97.566C88.6398 97.566 87.6968 98.0853 87.0681 99.124C86.6581 99.8073 86.4531 100.532 86.4531 101.297C86.4531 102.062 86.5078 102.759 86.6171 103.388Z" fill="black"/>
<path d="M109.722 111.301C109.722 112.914 109.913 114.089 110.296 114.827C110.706 115.565 111.512 115.934 112.715 115.934C113.918 115.934 115.107 115.182 116.282 113.679C117.457 112.176 118.045 110.877 118.045 109.784V98.304L114.806 98.14V97.197L123.293 96.664V115.688L126.614 115.852V116.795L118.209 117.287L118.414 113.187H118.004C116.419 116.002 114.123 117.41 111.116 117.41C106.743 117.41 104.556 115.305 104.556 111.096C104.556 106.887 104.706 102.623 105.007 98.304L101.973 98.14V97.197L110.132 96.746C109.859 102.923 109.722 107.775 109.722 111.301Z" fill="black"/>
<path d="M136.208 116.426C137.165 116.426 137.957 116.125 138.586 115.524C139.215 114.895 139.529 113.884 139.529 112.49C139.529 111.369 139.064 110.522 138.135 109.948C137.424 109.511 136.509 109.087 135.388 108.677C134.295 108.24 133.447 107.871 132.846 107.57C132.272 107.269 131.63 106.873 130.919 106.381C129.525 105.397 128.828 104.058 128.828 102.363C128.828 100.668 129.525 99.2743 130.919 98.181C132.34 97.0877 134.404 96.541 137.11 96.541C138.805 96.541 140.24 96.91 141.415 97.648C142.59 98.3587 143.178 99.2607 143.178 100.354C143.178 101.447 142.713 102.24 141.784 102.732C141.347 102.951 140.909 103.06 140.472 103.06L138.996 102.609C139.16 101.762 139.242 100.996 139.242 100.313C139.242 99.6023 139.023 98.9737 138.586 98.427C138.149 97.853 137.493 97.566 136.618 97.566C134.486 97.566 133.42 98.8507 133.42 101.42C133.42 102.595 133.871 103.47 134.773 104.044C135.456 104.509 136.331 104.932 137.397 105.315C138.463 105.67 139.297 105.985 139.898 106.258C140.527 106.531 141.196 106.914 141.907 107.406C143.328 108.335 144.039 109.716 144.039 111.547C144.039 113.351 143.287 114.786 141.784 115.852C140.281 116.918 138.299 117.451 135.839 117.451C133.106 117.451 131.083 117 129.771 116.098C129.006 115.551 128.623 114.882 128.623 114.089C128.623 113.296 128.883 112.654 129.402 112.162C129.949 111.67 130.7 111.41 131.657 111.383C131.848 114.745 133.365 116.426 136.208 116.426Z" fill="black"/>
<path d="M160.814 102.691C160.814 99.3563 159.652 97.689 157.329 97.689C154.896 97.689 153.42 99.821 152.901 104.085H160.732C160.787 103.538 160.814 103.074 160.814 102.691ZM156.96 117.451C154.035 117.451 151.657 116.494 149.826 114.581C148.022 112.668 147.12 110.139 147.12 106.996C147.12 103.853 148.063 101.324 149.949 99.411C151.862 97.4977 154.281 96.541 157.206 96.541C160.131 96.541 162.317 97.1697 163.766 98.427C165.215 99.657 165.939 101.379 165.939 103.593C165.939 104.222 165.884 104.878 165.775 105.561H152.778V106.996C152.778 110.057 153.161 112.381 153.926 113.966C154.691 115.524 155.839 116.303 157.37 116.303C158.928 116.303 160.336 115.989 161.593 115.36C162.878 114.704 163.875 113.788 164.586 112.613C165.187 112.804 165.488 113.091 165.488 113.474C165.488 114.157 164.846 114.95 163.561 115.852C162.932 116.289 162.03 116.672 160.855 117C159.707 117.301 158.409 117.451 156.96 117.451Z" fill="black"/>
<path d="M184.927 115.811L185.173 102.814C185.173 101.201 184.968 100.026 184.558 99.288C184.148 98.55 183.328 98.181 182.098 98.181C180.868 98.181 179.666 98.919 178.49 100.395C177.342 101.844 176.741 103.101 176.686 104.167V115.811L179.761 116.057V117H168.773V116.057L171.479 115.811V98.345L168.117 98.181V97.32L176.522 96.828L176.317 101.01H176.727C177.465 99.6433 178.463 98.591 179.72 97.853C180.978 97.0877 182.331 96.705 183.779 96.705C188.153 96.705 190.339 98.8097 190.339 103.019C190.339 106.053 190.244 110.317 190.052 115.811L192.881 116.057V117H182.959V116.057L184.927 115.811Z" fill="black"/>
<path d="M80.7625 136.992H88.7985V138.058L85.7645 138.837L78.2205 145.151L87.3225 155.77L90.0695 156.057V157H79.6145V156.057L81.9105 155.811L74.6945 147.529V155.77L76.9495 156.057V157H66.7815V156.057L69.4465 155.811V127.48L65.9205 127.234V126.209L74.6945 125.512V146.381L83.4275 138.837L80.7625 138.058V136.992Z" fill="black"/>
<path d="M107.412 155.811L107.658 142.814C107.658 141.201 107.453 140.026 107.043 139.288C106.633 138.55 105.813 138.181 104.583 138.181C103.353 138.181 102.15 138.919 100.975 140.395C99.8268 141.844 99.2255 143.101 99.1708 144.167V155.811L102.246 156.057V157H91.2578V156.057L93.9638 155.811V138.345L90.6018 138.181V137.32L99.0068 136.828L98.8018 141.01H99.2118C99.9498 139.643 100.947 138.591 102.205 137.853C103.462 137.088 104.815 136.705 106.264 136.705C110.637 136.705 112.824 138.81 112.824 143.019C112.824 146.053 112.728 150.317 112.537 155.811L115.366 156.057V157H105.444V156.057L107.412 155.811Z" fill="black"/>
<path d="M136.223 154.499C134.31 156.467 131.7 157.451 128.392 157.451C125.085 157.451 122.475 156.467 120.561 154.499C118.648 152.531 117.691 150.03 117.691 146.996C117.691 143.962 118.648 141.461 120.561 139.493C122.475 137.525 125.085 136.541 128.392 136.541C131.7 136.541 134.31 137.525 136.223 139.493C138.137 141.461 139.093 143.962 139.093 146.996C139.093 150.03 138.137 152.531 136.223 154.499ZM123.39 146.996C123.39 153.31 125.058 156.467 128.392 156.467C131.727 156.467 133.394 153.31 133.394 146.996C133.394 143.907 133.025 141.57 132.287 139.985C131.549 138.372 130.251 137.566 128.392 137.566C126.534 137.566 125.235 138.372 124.497 139.985C123.759 141.57 123.39 143.907 123.39 146.996Z" fill="black"/>
<path d="M156.215 136.541C158.621 136.541 160.63 137.334 162.242 138.919C163.882 140.477 164.702 142.964 164.702 146.381C164.702 149.77 163.746 152.476 161.832 154.499C159.946 156.494 157.227 157.492 153.673 157.492C152.088 157.492 150.735 157.123 149.614 156.385V166.061L152.443 166.307V167.25H141.865V166.307L144.366 166.061V138.427L140.799 138.222V137.279L149.491 136.746L149.368 140.19C150.872 137.757 153.154 136.541 156.215 136.541ZM149.614 142.855V154.909C150.708 155.811 151.951 156.262 153.345 156.262C154.739 156.262 155.805 155.961 156.543 155.36C157.281 154.731 157.814 153.857 158.142 152.736C158.716 150.905 159.003 148.527 159.003 145.602C159.003 140.409 157.664 137.812 154.985 137.812C153.564 137.812 152.307 138.386 151.213 139.534C150.147 140.682 149.614 141.789 149.614 142.855Z" fill="black"/>
<path d="M181.552 131.703C181.716 130.992 181.798 130.268 181.798 129.53C181.798 128.765 181.58 128.081 181.142 127.48C180.732 126.879 180.199 126.578 179.543 126.578C178.915 126.578 178.409 126.66 178.026 126.824C177.644 126.988 177.316 127.261 177.042 127.644C176.769 128.027 176.537 128.396 176.345 128.751C176.154 129.106 175.99 129.612 175.853 130.268C175.744 130.897 175.648 131.43 175.566 131.867C175.512 132.277 175.471 132.865 175.443 133.63C175.416 134.395 175.402 134.969 175.402 135.352V136.992H181.552V138.058H175.402V155.811L179.994 156.057V157H167.448V156.057L170.154 155.811V138.058H167.325V136.992H170.154V136.377C170.154 132.742 170.961 130.022 172.573 128.218C174.213 126.387 176.55 125.471 179.584 125.471C181.47 125.471 182.987 125.785 184.135 126.414C185.311 127.015 185.898 127.986 185.898 129.325C185.898 130.309 185.406 131.061 184.422 131.58C183.903 131.881 183.397 132.031 182.905 132.031C182.441 132.031 181.99 131.922 181.552 131.703Z" fill="black"/>
</svg>
