<svg width="175" height="175" viewBox="0 0 175 175" fill="none" xmlns="http://www.w3.org/2000/svg">
<path d="M33.3232 55.541C35.7285 55.541 37.7375 56.3337 39.3502 57.919C40.9902 59.477 41.8102 61.9643 41.8102 65.381C41.8102 68.7703 40.8535 71.4763 38.9402 73.499C37.0542 75.4943 34.3345 76.492 30.7812 76.492C29.1958 76.492 27.8428 76.123 26.7222 75.385V85.061L29.5512 85.307V86.25H18.9732V85.307L21.4742 85.061V57.427L17.9072 57.222V56.279L26.5992 55.746L26.4762 59.19C27.9795 56.7573 30.2618 55.541 33.3232 55.541ZM26.7222 61.855V73.909C27.8155 74.811 29.0592 75.262 30.4532 75.262C31.8472 75.262 32.9132 74.9613 33.6512 74.36C34.3892 73.7313 34.9222 72.8567 35.2502 71.736C35.8242 69.9047 36.1112 67.5267 36.1112 64.602C36.1112 59.4087 34.7718 56.812 32.0932 56.812C30.6718 56.812 29.4145 57.386 28.3212 58.534C27.2552 59.682 26.7222 60.789 26.7222 61.855Z" fill="black"/>
<path d="M56.5692 66.406C53.3985 66.406 51.4032 67.2397 50.5832 68.907C50.2279 69.6177 50.0502 70.506 50.0502 71.572C50.0502 73.4033 50.6789 74.4693 51.9362 74.77C52.1275 74.8247 52.3325 74.852 52.5512 74.852C53.4259 74.852 54.3005 74.401 55.1752 73.499C56.0499 72.5697 56.5145 71.3807 56.5692 69.932V66.406ZM50.0092 62.388C49.4079 62.798 48.7792 63.003 48.1232 63.003C47.4672 63.003 46.9069 62.7843 46.4422 62.347C45.9775 61.9097 45.7452 61.2673 45.7452 60.42C45.7452 59.5453 46.0049 58.7663 46.5242 58.083C47.0435 57.3997 47.7132 56.894 48.5332 56.566C50.1459 55.8827 51.6765 55.541 53.1252 55.541C56.3505 55.541 58.5509 56.115 59.7262 57.263C60.9015 58.3837 61.4892 60.1193 61.4892 62.47V74.811L64.9332 75.057V75.959L57.1022 76.451L56.7332 73.007C55.4485 75.3303 53.2345 76.492 50.0912 76.492C48.6699 76.492 47.4399 76.0683 46.4012 75.221C45.3899 74.3463 44.8842 73.13 44.8842 71.572C44.9115 69.4947 45.9502 67.9367 48.0002 66.898C50.0502 65.832 52.9065 65.299 56.5692 65.299V61.773C56.5692 60.1057 56.3369 58.821 55.8722 57.919C55.4075 57.017 54.5465 56.566 53.2892 56.566C52.0319 56.566 51.0889 57.0853 50.4602 58.124C50.0502 58.8073 49.8452 59.5317 49.8452 60.297C49.8452 61.0623 49.8999 61.7593 50.0092 62.388Z" fill="black"/>
<path d="M73.114 70.301C73.114 71.9137 73.3053 73.089 73.688 73.827C74.098 74.565 74.9043 74.934 76.107 74.934C77.3097 74.934 78.4987 74.1823 79.674 72.679C80.8493 71.1757 81.437 69.8773 81.437 68.784V57.304L78.198 57.14V56.197L86.685 55.664V74.688L90.006 74.852V75.795L81.601 76.287L81.806 72.187H81.396C79.8107 75.0023 77.5147 76.41 74.508 76.41C70.1347 76.41 67.948 74.3053 67.948 70.096C67.948 65.8867 68.0983 61.6227 68.399 57.304L65.365 57.14V56.197L73.524 55.746C73.2507 61.9233 73.114 66.775 73.114 70.301Z" fill="black"/>
<path d="M99.6 75.426C100.557 75.426 101.349 75.1253 101.978 74.524C102.607 73.8953 102.921 72.884 102.921 71.49C102.921 70.3693 102.456 69.522 101.527 68.948C100.816 68.5107 99.9007 68.087 98.78 67.677C97.6867 67.2397 96.8393 66.8707 96.238 66.57C95.664 66.2693 95.0217 65.873 94.311 65.381C92.917 64.397 92.22 63.0577 92.22 61.363C92.22 59.6683 92.917 58.2743 94.311 57.181C95.7323 56.0877 97.796 55.541 100.502 55.541C102.197 55.541 103.632 55.91 104.807 56.648C105.982 57.3587 106.57 58.2607 106.57 59.354C106.57 60.4473 106.105 61.24 105.176 61.732C104.739 61.9507 104.301 62.06 103.864 62.06L102.388 61.609C102.552 60.7617 102.634 59.9963 102.634 59.313C102.634 58.6023 102.415 57.9737 101.978 57.427C101.541 56.853 100.885 56.566 100.01 56.566C97.878 56.566 96.812 57.8507 96.812 60.42C96.812 61.5953 97.263 62.47 98.165 63.044C98.8483 63.5087 99.723 63.9323 100.789 64.315C101.855 64.6703 102.689 64.9847 103.29 65.258C103.919 65.5313 104.588 65.914 105.299 66.406C106.72 67.3353 107.431 68.7157 107.431 70.547C107.431 72.351 106.679 73.786 105.176 74.852C103.673 75.918 101.691 76.451 99.231 76.451C96.4977 76.451 94.475 76 93.163 75.098C92.3977 74.5514 92.015 73.8817 92.015 73.089C92.015 72.2963 92.2747 71.654 92.794 71.162C93.3407 70.67 94.0923 70.4103 95.049 70.383C95.2403 73.745 96.7573 75.426 99.6 75.426Z" fill="black"/>
<path d="M124.206 61.691C124.206 58.3563 123.044 56.689 120.721 56.689C118.288 56.689 116.812 58.821 116.293 63.085H124.124C124.179 62.5383 124.206 62.0737 124.206 61.691ZM120.352 76.451C117.427 76.451 115.049 75.4943 113.218 73.581C111.414 71.6677 110.512 69.1393 110.512 65.996C110.512 62.8527 111.455 60.3243 113.341 58.411C115.254 56.4977 117.673 55.541 120.598 55.541C123.523 55.541 125.709 56.1697 127.158 57.427C128.607 58.657 129.331 60.379 129.331 62.593C129.331 63.2217 129.276 63.8777 129.167 64.561H116.17V65.996C116.17 69.0573 116.553 71.3807 117.318 72.966C118.083 74.524 119.231 75.303 120.762 75.303C122.32 75.303 123.728 74.9887 124.985 74.36C126.27 73.704 127.267 72.7883 127.978 71.613C128.579 71.8043 128.88 72.0913 128.88 72.474C128.88 73.1573 128.238 73.95 126.953 74.852C126.324 75.2893 125.422 75.672 124.247 76C123.099 76.3007 121.801 76.451 120.352 76.451Z" fill="black"/>
<path d="M148.32 74.811L148.566 61.814C148.566 60.2013 148.361 59.026 147.951 58.288C147.541 57.55 146.721 57.181 145.491 57.181C144.261 57.181 143.058 57.919 141.883 59.395C140.735 60.8437 140.133 62.101 140.079 63.167V74.811L143.154 75.057V76H132.166V75.057L134.872 74.811V57.345L131.51 57.181V56.32L139.915 55.828L139.71 60.01H140.12C140.858 58.6433 141.855 57.591 143.113 56.853C144.37 56.0877 145.723 55.705 147.172 55.705C151.545 55.705 153.732 57.8097 153.732 62.019C153.732 65.053 153.636 69.317 153.445 74.811L156.274 75.057V76H146.352V75.057L148.32 74.811Z" fill="black"/>
<path d="M55.8059 95.992H63.8419V97.058L60.8079 97.837L53.2639 104.151L62.3659 114.77L65.1129 115.057V116H54.6579V115.057L56.9539 114.811L49.7379 106.529V114.77L51.9929 115.057V116H41.8249V115.057L44.4899 114.811V86.48L40.9639 86.234V85.209L49.7379 84.512V105.381L58.4709 97.837L55.8059 97.058V95.992Z" fill="black"/>
<path d="M82.4553 114.811L82.7013 101.814C82.7013 100.201 82.4963 99.026 82.0863 98.288C81.6763 97.55 80.8563 97.181 79.6263 97.181C78.3963 97.181 77.1936 97.919 76.0183 99.395C74.8703 100.844 74.2689 102.101 74.2143 103.167V114.811L77.2893 115.057V116H66.3013V115.057L69.0073 114.811V97.345L65.6453 97.181V96.32L74.0503 95.828L73.8453 100.01H74.2553C74.9933 98.6434 75.9909 97.591 77.2483 96.853C78.5056 96.0877 79.8586 95.705 81.3073 95.705C85.6806 95.705 87.8673 97.8097 87.8673 102.019C87.8673 105.053 87.7716 109.317 87.5803 114.811L90.4093 115.057V116H80.4873V115.057L82.4553 114.811Z" fill="black"/>
<path d="M111.267 113.499C109.353 115.467 106.743 116.451 103.436 116.451C100.128 116.451 97.5181 115.467 95.6047 113.499C93.6914 111.531 92.7347 109.03 92.7347 105.996C92.7347 102.962 93.6914 100.461 95.6047 98.493C97.5181 96.525 100.128 95.541 103.436 95.541C106.743 95.541 109.353 96.525 111.267 98.493C113.18 100.461 114.137 102.962 114.137 105.996C114.137 109.03 113.18 111.531 111.267 113.499ZM98.4337 105.996C98.4337 112.31 100.101 115.467 103.436 115.467C106.77 115.467 108.438 112.31 108.438 105.996C108.438 102.907 108.069 100.57 107.331 98.985C106.593 97.3723 105.294 96.566 103.436 96.566C101.577 96.566 100.279 97.3723 99.5407 98.985C98.8027 100.57 98.4337 102.907 98.4337 105.996Z" fill="black"/>
<path d="M131.259 95.541C133.664 95.541 135.673 96.3337 137.286 97.919C138.926 99.477 139.746 101.964 139.746 105.381C139.746 108.77 138.789 111.476 136.876 113.499C134.99 115.494 132.27 116.492 128.717 116.492C127.131 116.492 125.778 116.123 124.658 115.385V125.061L127.487 125.307V126.25H116.909V125.307L119.41 125.061V97.427L115.843 97.222V96.279L124.535 95.746L124.412 99.19C125.915 96.7573 128.197 95.541 131.259 95.541ZM124.658 101.855V113.909C125.751 114.811 126.995 115.262 128.389 115.262C129.783 115.262 130.849 114.961 131.587 114.36C132.325 113.731 132.858 112.857 133.186 111.736C133.76 109.905 134.047 107.527 134.047 104.602C134.047 99.4087 132.707 96.812 130.029 96.812C128.607 96.812 127.35 97.386 126.257 98.534C125.191 99.682 124.658 100.789 124.658 101.855Z" fill="black"/>
<path d="M156.596 90.703C156.76 89.9923 156.842 89.268 156.842 88.53C156.842 87.7647 156.623 87.0813 156.186 86.48C155.776 85.8787 155.243 85.578 154.587 85.578C153.958 85.578 153.452 85.66 153.07 85.824C152.687 85.988 152.359 86.2613 152.086 86.644C151.812 87.0267 151.58 87.3957 151.389 87.751C151.197 88.1063 151.033 88.612 150.897 89.268C150.787 89.8967 150.692 90.4297 150.61 90.867C150.555 91.277 150.514 91.8647 150.487 92.63C150.459 93.3953 150.446 93.9693 150.446 94.352V95.992H156.596V97.058H150.446V114.811L155.038 115.057V116H142.492V115.057L145.198 114.811V97.058H142.369V95.992H145.198V95.377C145.198 91.7417 146.004 89.022 147.617 87.218C149.257 85.3867 151.594 84.471 154.628 84.471C156.514 84.471 158.031 84.7853 159.179 85.414C160.354 86.0153 160.942 86.9857 160.942 88.325C160.942 89.309 160.45 90.0607 159.466 90.58C158.946 90.8807 158.441 91.031 157.949 91.031C157.484 91.031 157.033 90.9217 156.596 90.703Z" fill="black"/>
<path d="M114 106C114 112.075 109.075 117 103 117C96.9249 117 92 112.075 92 106C92 99.9249 96.9249 95 103 95C109.075 95 114 99.9249 114 106Z" fill="black"/>
<path d="M107.189 101V111.578H106.246L106 108.913L106.941 109.662C106.446 109.662 106 108.913 106 108.913V103.665L106.246 101H107.189Z" fill="#FBF0E9"/>
<path d="M99 101V111.578H99.943L100.189 108.913L99.2478 109.662C99.7426 109.662 100.189 108.913 100.189 108.913V103.665L99.943 101H99Z" fill="#FBF0E9"/>
</svg>
