<svg width="50" height="50" viewBox="0 0 50 50" fill="none" xmlns="http://www.w3.org/2000/svg">
<path d="M50 25C50 38.8071 38.8071 50 25 50C11.1929 50 0 38.8071 0 25C0 11.1929 11.1929 0 25 0C38.8071 0 50 11.1929 50 25Z" fill="black"/>
<path d="M35.1406 13.1777V36.8976H31.6568L30.748 30.9217L34.225 32.6012C32.3971 32.6012 30.748 30.9217 30.748 30.9217V19.1537L31.6568 13.1777H35.1406Z" fill="white"/>
<path d="M14.9347 13.1778L14.9347 36.8977H18.4185L19.3273 30.9217L15.8503 32.6012C17.6783 32.6012 19.3273 30.9217 19.3273 30.9217V19.1537L18.4185 13.1778H14.9347Z" fill="white"/>
</svg>
